<svg xmlns="http://www.w3.org/2000/svg" viewBox="0 0 360 360" role="img" aria-label="BlekCode">
  <rect width="360" height="360" rx="72" fill="#111111"/>
  <g transform="translate(44 30)">
    <path fill="#F2F2F2" d="M82.19,216.19l82.87,83.81H40.07c-22.13,0-40.07-17.94-40.07-40.07V40.07C0,17.94,17.94,0,40.07,0h126.76l-85.6,84.66-51.49,50.9-5.52,5.46c-2.39,2.37-3.75,5.61-3.75,8.98s1.36,6.6,3.75,8.96l57.01,56.38c.24.24.46.46.72.64l.24.22Z"/>
    <path fill="#F2F2F2" d="M207.98,150.79c-.18,3.07-1.49,6-3.7,8.17l-57.01,56.38c-2.45,2.41-5.65,3.64-8.85,3.64s-6.51-1.25-8.98-3.75c-4.89-4.95-4.84-12.95.11-17.84l47.94-47.39-47.94-47.41c-4.95-4.89-5-12.88-.11-17.83,4.91-4.95,12.88-5,17.84-.09l57.01,56.35c2.21,2.17,3.53,5.11,3.7,8.19,16.32-2.41,30.94-10.06,42.07-21.17,13.56-13.58,21.95-32.32,21.95-53.05C272,35.58,241.59,3.24,202.91.24L51.23,150.22l42.79,42.31,4.93,4.86c.35.35.7.72.99,1.12l100.31,101.42c.22,0,.42-.02.61-.02,19.17-.99,36.46-9.16,49.19-21.87,13.56-13.58,21.95-32.32,21.95-53.05,0-37.69-27.78-68.89-64.02-74.21ZM92.73,175.99c-1.25-.61-2.43-1.47-3.46-2.54-4.84-5-4.71-12.99.31-17.84l30.35-29.38c5-4.84,12.99-4.71,17.84.31,4.84,5,4.69,12.99-.31,17.84l-30.35,29.38c-3.94,3.81-9.73,4.54-14.37,2.23Z"/>
  </g>
</svg>
